<?xml version="1.0" encoding="UTF-8"?><svg id="Layer_2" xmlns="http://www.w3.org/2000/svg" viewBox="0 0 15.31 16.22"><defs><style>.cls-1{fill:#101010;}</style></defs><g id="Layer_1-2"><path class="cls-1" d="m15.31,4.26c-.94-1.07-1.81-2.17-2.81-3.26C11.95.41,11.18.04,10.3.01c-1.05-.04-2.18,0-3.35.24-1.17.24-2.37.74-3.34,1.46C.58,4.14-.46,7.82.18,10.94c.39,2.17,1.6,4.07,3.2,5.27-1.21-1.61-1.73-3.57-1.54-5.37.15-1.3.67-2.48,1.39-3.41.72-.91,1.73-1.65,2.62-1.9,1.06-.35,2.14-.15,3.54.31.56.19,1.24.16,1.93-.13,1.27-.52,2.66-.96,3.99-1.46Z"/></g></svg>